<svg width="28" height="28" viewBox="0 0 28 28" fill="none" xmlns="http://www.w3.org/2000/svg">
<path d="M26.6 3.12055C26.4807 3.10826 26.3605 3.10826 26.2413 3.12055H1.74126C1.58424 3.12296 1.42825 3.14651 1.27751 3.19055L13.9213 15.7818L26.6 3.12055Z" fill="white"/>
<path d="M27.895 4.33691L15.155 17.0244C14.8271 17.3504 14.3836 17.5333 13.9212 17.5333C13.4589 17.5333 13.0154 17.3504 12.6875 17.0244L0.06125 4.43316C0.0224345 4.57582 0.00185385 4.72283 0 4.87066V22.3707C0 22.8348 0.184374 23.2799 0.512563 23.6081C0.840752 23.9363 1.28587 24.1207 1.75 24.1207H26.25C26.7141 24.1207 27.1593 23.9363 27.4874 23.6081C27.8156 23.2799 28 22.8348 28 22.3707V4.87066C27.993 4.68836 27.9576 4.50827 27.895 4.33691ZM2.94875 22.3707H1.7325V21.1194L8.09375 14.8107L9.3275 16.0444L2.94875 22.3707ZM26.2325 22.3707H25.0075L18.6287 16.0444L19.8625 14.8107L26.2237 21.1194L26.2325 22.3707Z" fill="white"/>
</svg>
