<svg width="317" height="66" viewBox="0 0 317 66" fill="none" xmlns="http://www.w3.org/2000/svg">
<circle cx="33" cy="33" r="33" fill="white"/>
<mask id="mask0_1_67" style="mask-type:alpha" maskUnits="userSpaceOnUse" x="0" y="0" width="66" height="66">
<circle cx="33" cy="33" r="33" fill="#5723FD"/>
</mask>
<g mask="url(#mask0_1_67)">
<g filter="url(#filter0_f_1_67)">
<circle cx="13.7848" cy="17.9613" r="19.2152" fill="#3EFFAD"/>
</g>
<g filter="url(#filter1_f_1_67)">
<circle cx="55.5569" cy="51.7972" r="19.2152" fill="#3EFFAD"/>
</g>
<path fill-rule="evenodd" clip-rule="evenodd" d="M14.9745 27.2731H28.4749H37.1848C44.685 27.2731 50.7336 22.7367 50.7336 17.1115H29.7813C21.9908 17.0753 15.6519 21.5754 14.9745 27.2731ZM28.4749 39.3223C20.9746 39.3223 14.9261 43.8587 14.9261 49.4839H35.8783C43.6205 49.4839 50.0078 45.02 50.6368 39.3223H37.1848H28.4749ZM28.4749 28.2168H37.1848C44.685 28.2168 50.7336 32.7532 50.7336 38.3784H37.1848H28.4749C20.9746 38.3784 14.9261 33.842 14.9261 28.2168H28.4749Z" fill="#5723FD"/>
</g>
<path d="M88.9261 29.2885C87.2406 29.2885 85.8079 28.7829 84.7966 27.7716C83.7853 26.7602 83.1954 25.6647 83.1111 24.3162H86.3978C86.4821 24.9062 86.8192 25.4118 87.2406 25.7489C87.662 26.086 88.2519 26.2546 88.9261 26.2546C89.5161 26.2546 89.9374 26.1703 90.2745 25.9175C90.6116 25.6647 90.7802 25.3276 90.7802 24.9904C90.7802 24.3162 90.106 23.7263 88.8419 23.3892L87.4092 23.0521C86.145 22.715 85.218 22.2093 84.5438 21.4509C83.8696 20.6924 83.4482 19.7653 83.4482 18.6698C83.4482 17.3213 83.8696 16.2257 84.7966 15.383C85.7236 14.5402 86.9035 14.2031 88.4205 14.2031C89.9374 14.2031 91.2016 14.7088 92.2129 15.6358C93.1399 16.5629 93.6456 17.6584 93.7299 18.8383H90.4431C90.2745 18.3326 90.0217 17.9113 89.6846 17.6584C89.3475 17.4056 88.9261 17.3213 88.4205 17.3213C87.9148 17.3213 87.4934 17.4056 87.1563 17.6584C86.8192 17.9113 86.6507 18.1641 86.6507 18.5855C86.6507 19.0069 86.8192 19.2597 87.0721 19.5125C87.4092 19.7653 87.8305 19.9339 88.4205 20.1024L90.106 20.5238C91.3701 20.8609 92.2972 21.3666 92.9714 22.1251C93.6456 22.8836 93.9827 23.8106 93.9827 24.9904C93.9827 26.2546 93.477 27.3502 92.55 28.1929C91.7072 28.8671 90.4431 29.2885 88.9261 29.2885Z" fill="white"/>
<path d="M104.77 27.6877C103.674 28.6991 102.41 29.2047 100.978 29.2047C99.5449 29.2047 98.1965 28.6991 97.1852 27.6877C96.1738 26.6764 95.5839 25.4123 95.5839 23.8953C95.5839 22.3784 96.0896 21.1142 97.1852 20.1029C98.2807 19.0916 99.5449 18.5859 100.978 18.5859C102.41 18.5859 103.759 19.0916 104.77 20.1029C105.866 21.1142 106.371 22.3784 106.371 23.8953C106.371 25.4123 105.781 26.6764 104.77 27.6877ZM99.2921 25.6651C99.7134 26.0865 100.303 26.3393 100.893 26.3393C101.568 26.3393 102.073 26.0865 102.495 25.6651C102.916 25.2437 103.169 24.6538 103.169 23.8953C103.169 23.1368 102.916 22.5469 102.495 22.1255C102.073 21.7041 101.483 21.4513 100.893 21.4513C100.219 21.4513 99.7134 21.7041 99.2921 22.1255C98.8707 22.5469 98.6179 23.1368 98.6179 23.8953C98.6179 24.6538 98.8707 25.2437 99.2921 25.6651Z" fill="white"/>
<path d="M112.018 29.2884C110.754 29.2884 109.827 28.867 109.152 28.0243C108.478 27.1815 108.141 26.0859 108.141 24.6532V18.7539H111.259V24.0633C111.259 25.6645 111.765 26.423 112.861 26.423C114.125 26.423 114.799 25.496 114.799 23.7262V18.7539H117.917V29.0356H114.799V27.94C114.209 28.867 113.282 29.2884 112.018 29.2884Z" fill="white"/>
<path d="M125.67 29.1203C124.491 29.1203 123.479 28.7832 122.721 28.109C121.962 27.4348 121.541 26.5077 121.541 25.2436V21.3669H119.518V18.6701H121.541V15.8047H124.659V18.6701H127.525V21.3669H124.659V24.5694C124.659 25.1593 124.828 25.665 125.081 25.9178C125.333 26.1706 125.839 26.3392 126.429 26.3392C126.935 26.3392 127.272 26.2549 127.525 26.1706V28.9517C127.103 29.1203 126.513 29.1203 125.67 29.1203Z" fill="white"/>
<path d="M132.665 29.0361H129.547V13.5293H132.665V19.7657C133.255 18.923 134.182 18.5016 135.531 18.5016C136.795 18.5016 137.722 18.923 138.48 19.7657C139.155 20.6085 139.576 21.7041 139.576 23.0525V29.0361H136.458V23.6424C136.458 22.1254 135.868 21.367 134.772 21.367C134.182 21.367 133.677 21.6198 133.255 22.0412C132.834 22.4626 132.665 23.1368 132.665 24.0638V29.0361Z" fill="white"/>
<path d="M146.065 29.2887C144.717 29.2887 143.537 28.9516 142.694 28.2774C141.767 27.6032 141.346 26.7604 141.261 25.7491H144.548C144.548 26.1705 144.717 26.4233 145.054 26.6761C145.391 26.929 145.728 27.0132 146.149 27.0132C146.908 27.0132 147.329 26.7604 147.329 26.339C147.329 26.0862 147.245 25.9177 147.077 25.8334C146.908 25.7491 146.571 25.5806 146.149 25.4963L144.043 24.9906C142.273 24.5692 141.43 23.4737 141.43 21.7881C141.43 20.8611 141.851 20.1026 142.61 19.5127C143.368 18.9227 144.464 18.6699 145.728 18.6699C146.908 18.6699 147.919 18.9227 148.678 19.5127C149.436 20.1026 149.942 20.9454 150.026 21.9567H146.908C146.824 21.2825 146.402 21.0296 145.728 21.0296C145.054 21.0296 144.717 21.2825 144.717 21.7039C144.717 22.1252 145.054 22.3781 145.728 22.5466L147.582 23.0523C148.593 23.3051 149.352 23.7265 149.773 24.2321C150.195 24.7378 150.448 25.412 150.448 26.2548C150.448 27.1818 150.026 27.9403 149.183 28.5302C148.425 28.9516 147.414 29.2887 146.065 29.2887Z" fill="white"/>
<path d="M155.588 29.0361H152.47V13.5293H155.588V19.7657C156.178 18.923 157.105 18.5016 158.454 18.5016C159.718 18.5016 160.645 18.923 161.403 19.7657C162.078 20.6085 162.499 21.7041 162.499 23.0525V29.0361H159.381V23.6424C159.381 22.1254 158.791 21.367 157.695 21.367C157.105 21.367 156.6 21.6198 156.178 22.0412C155.757 22.4626 155.588 23.1368 155.588 24.0638V29.0361Z" fill="white"/>
<path d="M173.455 27.6877C172.359 28.6991 171.095 29.2047 169.663 29.2047C168.23 29.2047 166.881 28.6991 165.87 27.6877C164.859 26.6764 164.269 25.4123 164.269 23.8953C164.269 22.3784 164.775 21.1142 165.87 20.1029C166.966 19.0916 168.23 18.5859 169.663 18.5859C171.095 18.5859 172.444 19.0916 173.455 20.1029C174.551 21.1142 175.056 22.3784 175.056 23.8953C175.056 25.4123 174.551 26.6764 173.455 27.6877ZM167.977 25.6651C168.398 26.0865 168.988 26.3393 169.578 26.3393C170.252 26.3393 170.758 26.0865 171.179 25.6651C171.601 25.2437 171.854 24.6538 171.854 23.8953C171.854 23.1368 171.601 22.5469 171.179 22.1255C170.758 21.7041 170.168 21.4513 169.578 21.4513C168.904 21.4513 168.398 21.7041 167.977 22.1255C167.556 22.5469 167.303 23.1368 167.303 23.8953C167.303 24.6538 167.556 25.2437 167.977 25.6651Z" fill="white"/>
<path d="M176.995 29.0362V18.7545H180.113V20.2715C180.281 19.7658 180.618 19.4287 181.04 19.0916C181.461 18.7545 181.967 18.5859 182.557 18.5859C182.894 18.5859 183.231 18.5859 183.568 18.6702V21.7884C183.062 21.6199 182.641 21.5356 182.22 21.5356C181.545 21.5356 181.04 21.7884 180.703 22.2098C180.366 22.6312 180.197 23.3054 180.197 24.0639V28.9519H176.995V29.0362Z" fill="white"/>
<path d="M189.72 29.289C188.119 29.289 186.855 28.7833 185.759 27.772C184.748 26.7607 184.242 25.4966 184.242 23.8953C184.242 22.3784 184.748 21.1142 185.759 20.1029C186.771 19.0916 188.119 18.5859 189.636 18.5859C190.394 18.5859 191.069 18.7545 191.743 19.0073C192.417 19.2601 193.007 19.6815 193.513 20.1029C194.018 20.6086 194.44 21.1985 194.692 22.0413C194.945 22.7997 195.114 23.7268 195.114 24.7381H187.192C187.276 25.328 187.529 25.7494 187.95 26.1708C188.372 26.5079 189.046 26.7607 189.804 26.7607C190.226 26.7607 190.647 26.6764 191.069 26.5079C191.406 26.3393 191.659 26.0865 191.827 25.8337H195.114C194.777 26.9293 194.103 27.772 193.176 28.4462C192.164 28.9519 191.069 29.289 189.72 29.289ZM189.636 20.9457C189.046 20.9457 188.54 21.1142 188.203 21.367C187.782 21.7041 187.529 22.0413 187.445 22.5469H191.827C191.659 21.957 191.406 21.5356 190.984 21.2828C190.563 21.1142 190.142 20.9457 189.636 20.9457Z" fill="white"/>
<path d="M202.109 29.0371V14.373H205.396V29.0371H202.109Z" fill="white"/>
<path d="M207.924 29.0364V18.7548H211.042V19.7661C211.632 18.9233 212.559 18.502 213.907 18.502C215.172 18.502 216.099 18.9233 216.857 19.7661C217.531 20.6089 217.953 21.7044 217.953 23.0529V29.0364H214.834V23.6428C214.834 22.1258 214.245 21.3673 213.149 21.3673C212.559 21.3673 212.053 21.6202 211.632 22.0415C211.211 22.4629 211.042 23.1371 211.042 24.0642V29.0364H207.924Z" fill="white"/>
<path d="M220.397 29.0364V18.7548H223.515V19.7661C224.105 18.9233 225.032 18.502 226.38 18.502C227.644 18.502 228.571 18.9233 229.33 19.7661C230.004 20.6089 230.425 21.7044 230.425 23.0529V29.0364H227.223V23.6428C227.223 22.1258 226.633 21.3673 225.537 21.3673C224.948 21.3673 224.442 21.6202 224.02 22.0415C223.599 22.4629 223.431 23.1371 223.431 24.0642V29.0364H220.397Z" fill="white"/>
<path d="M241.381 27.6877C240.286 28.6991 239.022 29.2047 237.589 29.2047C236.156 29.2047 234.808 28.6991 233.797 27.6877C232.785 26.6764 232.195 25.4123 232.195 23.8953C232.195 22.3784 232.701 21.1142 233.797 20.1029C234.892 19.0916 236.156 18.5859 237.589 18.5859C239.022 18.5859 240.37 19.0916 241.381 20.1029C242.477 21.1142 242.983 22.3784 242.983 23.8953C242.983 25.4123 242.477 26.6764 241.381 27.6877ZM235.903 25.6651C236.325 26.0865 236.915 26.3393 237.505 26.3393C238.179 26.3393 238.685 26.0865 239.106 25.6651C239.527 25.2437 239.78 24.6538 239.78 23.8953C239.78 23.1368 239.527 22.5469 239.106 22.1255C238.685 21.7041 238.095 21.4513 237.505 21.4513C236.83 21.4513 236.325 21.7041 235.903 22.1255C235.482 22.5469 235.229 23.1368 235.229 23.8953C235.229 24.6538 235.482 25.2437 235.903 25.6651Z" fill="white"/>
<path d="M247.786 29.0356L243.235 18.7539H246.691L249.219 24.9903L251.747 18.7539H255.203L250.652 29.0356H247.786Z" fill="white"/>
<path d="M260.259 29.2893C258.911 29.2893 257.815 28.7836 256.888 27.688C255.961 26.5924 255.455 25.3283 255.455 23.8956C255.455 22.4629 255.877 21.1988 256.888 20.1032C257.815 19.0076 258.911 18.502 260.259 18.502C261.439 18.502 262.366 18.9233 263.04 19.7661V18.7548H266.159V29.0364H263.04V28.0251C262.366 28.8679 261.439 29.2893 260.259 29.2893ZM259.248 25.7497C259.669 26.2553 260.259 26.5082 260.933 26.5082C261.608 26.5082 262.198 26.2553 262.619 25.7497C263.04 25.244 263.293 24.6541 263.293 23.8956C263.293 23.1371 263.04 22.5472 262.619 22.0415C262.198 21.5359 261.608 21.2831 260.933 21.2831C260.259 21.2831 259.669 21.5359 259.248 22.0415C258.826 22.5472 258.574 23.1371 258.574 23.8956C258.574 24.6541 258.826 25.244 259.248 25.7497Z" fill="white"/>
<path d="M273.996 29.1203C272.816 29.1203 271.805 28.7832 271.046 28.109C270.288 27.4348 269.867 26.5077 269.867 25.2436V21.3669H267.844V18.6701H269.867V15.8047H272.985V18.6701H275.85V21.3669H272.985V24.5694C272.985 25.1593 273.153 25.665 273.406 25.9178C273.659 26.1706 274.165 26.3392 274.755 26.3392C275.26 26.3392 275.597 26.2549 275.85 26.1706V28.9517C275.345 29.1203 274.755 29.1203 273.996 29.1203Z" fill="white"/>
<path d="M279.306 17.322C278.8 17.322 278.294 17.1535 277.957 16.7321C277.536 16.395 277.367 15.8893 277.367 15.3837C277.367 14.878 277.536 14.3723 277.957 14.0352C278.379 13.6981 278.8 13.4453 279.306 13.4453C279.895 13.4453 280.317 13.6139 280.738 14.0352C281.075 14.3723 281.328 14.878 281.328 15.3837C281.328 15.8893 281.16 16.395 280.738 16.7321C280.317 17.1535 279.895 17.322 279.306 17.322ZM277.789 29.0364V18.7547H280.907V29.0364H277.789Z" fill="white"/>
<path d="M292.031 27.6877C290.936 28.6991 289.672 29.2047 288.239 29.2047C286.806 29.2047 285.458 28.6991 284.446 27.6877C283.435 26.6764 282.845 25.4123 282.845 23.8953C282.845 22.3784 283.351 21.1142 284.446 20.1029C285.542 19.0916 286.806 18.5859 288.239 18.5859C289.672 18.5859 291.02 19.0916 292.031 20.1029C293.127 21.1142 293.632 22.3784 293.632 23.8953C293.632 25.4123 293.127 26.6764 292.031 27.6877ZM286.553 25.6651C286.975 26.0865 287.565 26.3393 288.155 26.3393C288.829 26.3393 289.334 26.0865 289.756 25.6651C290.177 25.2437 290.43 24.6538 290.43 23.8953C290.43 23.1368 290.177 22.5469 289.756 22.1255C289.334 21.7041 288.744 21.4513 288.155 21.4513C287.48 21.4513 286.975 21.7041 286.553 22.1255C286.132 22.5469 285.879 23.1368 285.879 23.8953C285.879 24.6538 286.132 25.2437 286.553 25.6651Z" fill="white"/>
<path d="M295.571 29.0364V18.7548H298.689V19.7661C299.279 18.9233 300.206 18.502 301.554 18.502C302.819 18.502 303.746 18.9233 304.504 19.7661C305.178 20.6089 305.6 21.7044 305.6 23.0529V29.0364H302.481V23.6428C302.481 22.1258 301.891 21.3673 300.796 21.3673C300.206 21.3673 299.7 21.6202 299.279 22.0415C298.858 22.4629 298.689 23.1371 298.689 24.0642V29.0364H295.571Z" fill="white"/>
<path d="M312.173 29.2887C310.825 29.2887 309.645 28.9516 308.802 28.2774C307.875 27.6032 307.454 26.7604 307.369 25.7491H310.656C310.656 26.1705 310.825 26.4233 311.162 26.6761C311.499 26.929 311.836 27.0132 312.257 27.0132C313.016 27.0132 313.437 26.7604 313.437 26.339C313.437 26.0862 313.353 25.9177 313.184 25.8334C313.016 25.7491 312.679 25.5806 312.257 25.4963L310.15 24.9906C308.381 24.5692 307.538 23.4737 307.538 21.7881C307.538 20.8611 307.959 20.1026 308.718 19.5127C309.476 18.9227 310.572 18.6699 311.836 18.6699C313.016 18.6699 314.027 18.9227 314.786 19.5127C315.544 20.1026 316.05 20.9454 316.134 21.9567H313.016C312.932 21.2825 312.51 21.0296 311.836 21.0296C311.162 21.0296 310.825 21.2825 310.825 21.7039C310.825 22.1252 311.162 22.3781 311.836 22.5466L313.69 23.0523C314.701 23.3051 315.46 23.7265 315.881 24.2321C316.303 24.7378 316.555 25.412 316.555 26.2548C316.555 27.1818 316.134 27.9403 315.291 28.5302C314.533 28.9516 313.437 29.2887 312.173 29.2887Z" fill="white"/>
<path d="M91.7915 38.0137C92.8028 38.9408 93.2242 40.2049 93.2242 41.5533C93.2242 42.9018 92.7185 44.1659 91.7915 45.0929C90.7802 46.02 89.6003 46.5256 88.0834 46.5256H86.3978V51.1608H83.1111V36.5811H88.0834C89.6003 36.5811 90.8645 37.0024 91.7915 38.0137ZM90.106 41.5533C90.106 40.9634 89.9374 40.542 89.5161 40.2049C89.179 39.8678 88.6733 39.6993 88.0834 39.6993H86.3978V43.4917H88.0834C88.6733 43.4917 89.179 43.3231 89.5161 42.9018C89.9374 42.5646 90.106 42.059 90.106 41.5533Z" fill="white"/>
<path d="M94.9097 51.1612V40.8795H98.0279V42.3965C98.1964 41.8908 98.5335 41.5537 98.9549 41.2166C99.3763 40.8795 99.882 40.7109 100.472 40.7109C100.809 40.7109 101.146 40.7109 101.483 40.7952V43.9134C100.978 43.7449 100.556 43.6606 100.135 43.6606C99.4606 43.6606 98.9549 43.9134 98.6178 44.3348C98.2807 44.7562 98.1122 45.4304 98.1122 46.1889V51.0769H94.9097V51.1612Z" fill="white"/>
<path d="M104.77 39.447C104.264 39.447 103.759 39.2785 103.422 38.8571C103 38.52 102.832 38.0143 102.832 37.5087C102.832 37.003 103 36.4973 103.422 36.1602C103.843 35.8231 104.264 35.5703 104.77 35.5703C105.36 35.5703 105.781 35.7389 106.203 36.1602C106.54 36.4973 106.793 37.003 106.793 37.5087C106.793 38.0143 106.624 38.52 106.203 38.8571C105.781 39.2785 105.276 39.447 104.77 39.447ZM103.253 51.1614V40.8797H106.371V51.1614H103.253Z" fill="white"/>
<path d="M112.102 51.1606L107.551 40.8789H111.006L113.535 47.1153L116.063 40.8789H119.518L114.967 51.1606H112.102Z" fill="white"/>
<path d="M124.575 51.4143C123.226 51.4143 122.131 50.9086 121.204 49.813C120.277 48.7174 119.771 47.4533 119.771 46.0206C119.771 44.5879 120.193 43.3238 121.204 42.2282C122.131 41.1326 123.226 40.627 124.575 40.627C125.755 40.627 126.682 41.0483 127.356 41.8911V40.8798H130.474V51.1614H127.356V50.1501C126.682 50.9929 125.755 51.4143 124.575 51.4143ZM123.564 47.8747C123.985 48.3803 124.575 48.6332 125.249 48.6332C125.923 48.6332 126.513 48.3803 126.935 47.8747C127.356 47.369 127.609 46.7791 127.609 46.0206C127.609 45.2621 127.356 44.6722 126.935 44.1665C126.513 43.6609 125.923 43.4081 125.249 43.4081C124.575 43.4081 123.985 43.6609 123.564 44.1665C123.142 44.6722 122.889 45.2621 122.889 46.0206C122.889 46.7791 123.142 47.369 123.564 47.8747Z" fill="white"/>
<path d="M138.312 51.329C137.132 51.329 136.121 50.9919 135.362 50.3177C134.604 49.6435 134.182 48.7164 134.182 47.4523V43.6599H132.16V40.963H134.182V38.0977H137.301V40.963H140.166V43.6599H137.301V46.8624C137.301 47.4523 137.469 47.9579 137.722 48.2108C137.975 48.4636 138.48 48.6322 139.07 48.6322C139.576 48.6322 139.913 48.5479 140.166 48.4636V51.2447C139.745 51.2447 139.07 51.329 138.312 51.329Z" fill="white"/>
<path d="M146.824 51.414C145.222 51.414 143.958 50.9083 142.863 49.897C141.851 48.8857 141.346 47.6216 141.346 46.0203C141.346 44.5034 141.851 43.2392 142.863 42.2279C143.874 41.2166 145.222 40.7109 146.739 40.7109C147.498 40.7109 148.172 40.8795 148.846 41.1323C149.521 41.3851 150.11 41.8065 150.616 42.2279C151.122 42.7336 151.543 43.3235 151.796 44.1663C152.049 44.9247 152.217 45.8518 152.217 46.8631H144.295C144.38 47.453 144.633 47.8744 145.054 48.2958C145.475 48.6329 146.149 48.8857 146.908 48.8857C147.329 48.8857 147.751 48.8014 148.172 48.6329C148.593 48.4643 148.762 48.2115 148.931 47.9587H152.217C151.88 49.0543 151.206 49.897 150.279 50.5712C149.268 51.0769 148.088 51.414 146.824 51.414ZM146.739 43.1549C146.149 43.1549 145.644 43.3235 145.307 43.5763C144.97 43.8291 144.633 44.2505 144.548 44.7562H148.931C148.762 44.1663 148.509 43.7449 148.088 43.492C147.666 43.2392 147.245 43.1549 146.739 43.1549Z" fill="white"/>
<path d="M159.212 51.1608V36.5811H162.499V48.1269H168.567V51.2451H159.212V51.1608Z" fill="white"/>
<path d="M171.769 39.447C171.264 39.447 170.758 39.2785 170.421 38.8571C170 38.52 169.831 38.0143 169.831 37.5087C169.831 37.003 170 36.4973 170.421 36.1602C170.842 35.8231 171.264 35.5703 171.769 35.5703C172.359 35.5703 172.781 35.7389 173.202 36.1602C173.539 36.4973 173.792 37.003 173.792 37.5087C173.792 38.0143 173.623 38.52 173.202 38.8571C172.781 39.2785 172.275 39.447 171.769 39.447ZM170.168 51.1614V40.8797H173.286V51.1614H170.168Z" fill="white"/>
<path d="M188.793 51.1614V45.8521C188.793 44.2508 188.287 43.4923 187.276 43.4923C186.096 43.4923 185.506 44.3351 185.422 46.1049V51.2457H182.304V45.9363C182.304 44.3351 181.798 43.5766 180.787 43.5766C180.197 43.5766 179.776 43.8294 179.439 44.2508C179.101 44.6722 178.933 45.3464 178.933 46.2734V51.2457H175.815V40.8798H178.933V41.8911C179.607 41.0483 180.45 40.627 181.545 40.627C182.978 40.627 184.074 41.2169 184.748 42.481C185.085 41.8911 185.506 41.4697 186.096 41.1326C186.686 40.7955 187.276 40.627 187.95 40.627C189.215 40.627 190.142 41.0483 190.816 41.8911C191.49 42.7339 191.827 43.8294 191.827 45.3464V51.2457H188.793V51.1614Z" fill="white"/>
<path d="M195.872 39.447C195.367 39.447 194.861 39.2785 194.524 38.8571C194.103 38.52 193.934 38.0143 193.934 37.5087C193.934 37.003 194.103 36.4973 194.524 36.1602C194.945 35.8231 195.367 35.5703 195.872 35.5703C196.462 35.5703 196.884 35.7389 197.305 36.1602C197.642 36.4973 197.895 37.003 197.895 37.5087C197.895 38.0143 197.726 38.52 197.305 38.8571C196.884 39.2785 196.378 39.447 195.872 39.447ZM194.271 51.1614V40.8797H197.389V51.1614H194.271Z" fill="white"/>
<path d="M205.227 51.329C204.047 51.329 203.036 50.9919 202.277 50.3177C201.519 49.6435 201.097 48.7164 201.097 47.4523V43.6599H199.075V40.963H201.097V38.0977H204.216V40.963H207.081V43.6599H204.216V46.8624C204.216 47.4523 204.384 47.9579 204.637 48.2108C204.89 48.4636 205.396 48.6322 205.985 48.6322C206.491 48.6322 206.828 48.5479 207.081 48.4636V51.2447C206.66 51.2447 205.985 51.329 205.227 51.329Z" fill="white"/>
<path d="M213.739 51.414C212.138 51.414 210.873 50.9083 209.778 49.897C208.767 48.8857 208.261 47.6216 208.261 46.0203C208.261 44.5034 208.767 43.2392 209.778 42.2279C210.789 41.2166 212.138 40.7109 213.655 40.7109C214.413 40.7109 215.087 40.8795 215.761 41.1323C216.436 41.3851 217.026 41.8065 217.531 42.2279C218.037 42.7336 218.458 43.3235 218.711 44.1663C218.964 44.9247 219.133 45.8518 219.133 46.8631H211.211C211.295 47.453 211.548 47.8744 211.969 48.2958C212.39 48.6329 213.065 48.8857 213.823 48.8857C214.244 48.8857 214.666 48.8014 215.087 48.6329C215.509 48.4643 215.677 48.2115 215.846 47.9587H219.133C218.795 49.0543 218.121 49.897 217.194 50.5712C216.183 51.0769 215.003 51.414 213.739 51.414ZM213.655 43.1549C213.065 43.1549 212.559 43.3235 212.222 43.5763C211.885 43.8291 211.548 44.2505 211.463 44.7562H215.846C215.677 44.1663 215.424 43.7449 215.003 43.492C214.582 43.2392 214.16 43.1549 213.655 43.1549Z" fill="white"/>
<path d="M225.369 51.4146C224.021 51.4146 222.925 50.9089 221.998 49.8133C221.071 48.7178 220.565 47.4536 220.565 46.0209C220.565 44.5882 220.987 43.3241 221.998 42.2285C222.925 41.1329 224.021 40.6273 225.369 40.6273C226.549 40.6273 227.476 41.0486 228.15 41.8914V35.7393H231.268V51.1618H228.15V50.1505C227.476 50.9932 226.549 51.4146 225.369 51.4146ZM224.358 47.875C224.779 48.3807 225.369 48.6335 226.043 48.6335C226.717 48.6335 227.307 48.3807 227.729 47.875C228.15 47.3693 228.403 46.7794 228.403 46.0209C228.403 45.2624 228.15 44.6725 227.729 44.1669C227.307 43.6612 226.717 43.4084 226.043 43.4084C225.369 43.4084 224.779 43.6612 224.358 44.1669C223.936 44.6725 223.683 45.2624 223.683 46.0209C223.683 46.7794 223.936 47.3693 224.358 47.875Z" fill="white"/>
<defs>
<filter id="filter0_f_1_67" x="-25.4304" y="-21.2539" width="78.4304" height="78.4304" filterUnits="userSpaceOnUse" color-interpolation-filters="sRGB">
<feFlood flood-opacity="0" result="BackgroundImageFix"/>
<feBlend mode="normal" in="SourceGraphic" in2="BackgroundImageFix" result="shape"/>
<feGaussianBlur stdDeviation="10" result="effect1_foregroundBlur_1_67"/>
</filter>
<filter id="filter1_f_1_67" x="16.3417" y="12.582" width="78.4304" height="78.4304" filterUnits="userSpaceOnUse" color-interpolation-filters="sRGB">
<feFlood flood-opacity="0" result="BackgroundImageFix"/>
<feBlend mode="normal" in="SourceGraphic" in2="BackgroundImageFix" result="shape"/>
<feGaussianBlur stdDeviation="10" result="effect1_foregroundBlur_1_67"/>
</filter>
</defs>
</svg>
