<svg width="46" height="47" viewBox="0 0 46 47" fill="none" xmlns="http://www.w3.org/2000/svg">
<path d="M23 0.5C10.2973 0.5 0 10.7973 0 23.5C0 36.2027 10.2973 46.5 23 46.5C35.7027 46.5 46 36.2027 46 23.5C46 10.7973 35.7027 0.5 23 0.5ZM17.3698 33.033H12.7123V18.0447H17.3698V33.033ZM15.0123 16.2047C13.5412 16.2047 12.5901 15.1625 12.5901 13.8735C12.5901 12.5582 13.57 11.5472 15.0722 11.5472C16.5744 11.5472 17.4944 12.5582 17.5231 13.8735C17.5231 15.1625 16.5744 16.2047 15.0123 16.2047ZM34.3802 33.033H29.7227V24.7267C29.7227 22.7932 29.0471 21.4803 27.3628 21.4803C26.0763 21.4803 25.312 22.3692 24.9742 23.2245C24.8496 23.5288 24.8184 23.96 24.8184 24.3889V33.0306H20.1585V22.8244C20.1585 20.9532 20.0986 19.3887 20.0364 18.0423H24.0829L24.2961 20.1243H24.3896C25.0029 19.1468 26.5051 17.7045 29.0183 17.7045C32.0826 17.7045 34.3802 19.7577 34.3802 24.1708V33.033V33.033Z" fill="white"/>
</svg>
