<svg width="46" height="47" viewBox="0 0 46 47" fill="none" xmlns="http://www.w3.org/2000/svg">
<path d="M26.8405 23.0999L21.4595 20.5891C20.9899 20.371 20.6042 20.6154 20.6042 21.1353V25.8647C20.6042 26.3846 20.9899 26.629 21.4595 26.4109L26.8381 23.9001C27.3101 23.6797 27.3101 23.3203 26.8405 23.0999ZM23 0.5C10.2973 0.5 0 10.7973 0 23.5C0 36.2027 10.2973 46.5 23 46.5C35.7027 46.5 46 36.2027 46 23.5C46 10.7973 35.7027 0.5 23 0.5ZM23 32.8437C11.2269 32.8437 11.0208 31.7824 11.0208 23.5C11.0208 15.2176 11.2269 14.1562 23 14.1562C34.7731 14.1562 34.9792 15.2176 34.9792 23.5C34.9792 31.7824 34.7731 32.8437 23 32.8437Z" fill="white"/>
</svg>
